<?xml version="1.0" standalone="no"?>
<!DOCTYPE svg PUBLIC "-//W3C//DTD SVG 1.1//EN" "http://www.w3.org/Graphics/SVG/1.1/DTD/svg11.dtd" >
<svg>
<metadata>
Created by FontForge 20120731 at Wed Feb 10 02:17:43 2016
 By www
Copyright NAL 2012
</metadata>
<defs>
<font id="Notalot35" horiz-adv-x="384" >
  <font-face 
    font-family="Notalot35"
    font-weight="400"
    font-stretch="normal"
    units-per-em="1024"
    panose-1="0 0 4 0 0 0 0 0 0 0"
    ascent="819"
    descent="-205"
    x-height="320"
    cap-height="448"
    bbox="-64 -128 576 576"
    underline-thickness="51"
    underline-position="127"
    unicode-range="U+0020-FB02"
  />
<missing-glyph horiz-adv-x="192" 
d="M224 63v71h-72v-71h72zM295 146v72h-143v-72h143zM224 229v72h-72v-72h72zM295 313v70h-71q-30 0 -51 -20q-21 -21 -21 -50h143zM0 0v448h448v-448h-448z" />
    <glyph glyph-name=".notdef" horiz-adv-x="192" 
d="M224 63v71h-72v-71h72zM295 146v72h-143v-72h143zM224 229v72h-72v-72h72zM295 313v70h-71q-30 0 -51 -20q-21 -21 -21 -50h143zM0 0v448h448v-448h-448z" />
    <glyph glyph-name="glyph1" horiz-adv-x="0" 
 />
    <glyph glyph-name="glyph2" horiz-adv-x="128" 
 />
    <glyph glyph-name="space" unicode=" " horiz-adv-x="128" 
 />
    <glyph glyph-name="exclam" unicode="!" horiz-adv-x="192" 
d="M0 0v64h128v-64h-128zM0 128v320h128v-320h-128z" />
    <glyph glyph-name="quotedbl" unicode="&#x22;" 
d="M0 320v128h128v-128h-128zM192 320v128h128v-128h-128z" />
    <glyph glyph-name="numbersign" unicode="#" horiz-adv-x="512" 
d="M256 128v192h-64v-192h64zM64 0v64h-64v64h64v192h-64v64h64v64h128v-64h64v64h128v-64h64v-64h-64v-192h64v-64h-64v-64h-128v64h-64v-64h-128z" />
    <glyph glyph-name="dollar" unicode="$" 
d="M128 0v64h-128v64h192v64h-192v128h64v64h64v64h64v-64h128v-64h-192v-64h192v-128h-64v-64h-64v-64h-64z" />
    <glyph glyph-name="percent" unicode="%" 
d="M192 0v128h128v-128h-128zM0 320v128h128v-128h-128zM0 0v192h64v64h64v64h64v128h128v-128h-64v-64h-64v-64h-64v-192h-128z" />
    <glyph glyph-name="ampersand" unicode="&#x26;" 
d="M64 0v64h-64v128h64v64h-64v128h64v64h192v-64h-128v-128h64v-64h-64v-128h64v64h128v-64h-64v-64h-192z" />
    <glyph glyph-name="quotesingle" unicode="'" horiz-adv-x="192" 
d="M0 320v128h128v-128h-128z" />
    <glyph glyph-name="parenleft" unicode="(" horiz-adv-x="256" 
d="M64 0v64h-64v320h64v64h128v-64h-64v-320h64v-64h-128z" />
    <glyph glyph-name="parenright" unicode=")" horiz-adv-x="256" 
d="M0 0v64h64v320h-64v64h128v-64h64v-320h-64v-64h-128z" />
    <glyph glyph-name="asterisk" unicode="*" horiz-adv-x="448" 
d="M128 0v64h-128v64h64v64h-64v64h128v64h128v-64h128v-64h-64v-64h64v-64h-128v-64h-128z" />
    <glyph glyph-name="plus" unicode="+" horiz-adv-x="320" 
d="M64 128v64h-64v64h64v64h128v-64h64v-64h-64v-64h-128z" />
    <glyph glyph-name="comma" unicode="," horiz-adv-x="192" 
d="M64 -64v64h-64v128h128v-192h-64z" />
    <glyph glyph-name="hyphen" unicode="-" horiz-adv-x="320" 
d="M0 192v64h256v-64h-256z" />
    <glyph glyph-name="period" unicode="." horiz-adv-x="192" 
d="M0 0v128h128v-128h-128z" />
    <glyph glyph-name="slash" unicode="/" 
d="M0 0v192h64v64h64v64h64v128h128v-128h-64v-64h-64v-64h-64v-192h-128z" />
    <glyph glyph-name="zero" unicode="0" 
d="M192 64v320h-64v-320h64zM64 0v64h-64v320h64v64h192v-64h64v-320h-64v-64h-192z" />
    <glyph glyph-name="one" unicode="1" horiz-adv-x="320" 
d="M0 0v64h64v320h-64v64h192v-384h64v-64h-256z" />
    <glyph glyph-name="two" unicode="2" 
d="M0 0v128h64v64h64v64h64v128h-64v-64h-128v64h64v64h192v-64h64v-128h-64v-64h-64v-64h-64v-64h192v-64h-320z" />
    <glyph glyph-name="three" unicode="3" 
d="M64 0v64h-64v64h128v-64h64v128h-128v64h128v128h-64v-64h-128v64h64v64h192v-64h64v-128h-64v-64h64v-128h-64v-64h-192z" />
    <glyph glyph-name="four" unicode="4" 
d="M192 0v192h-128v64h-64v192h128v-192h64v192h128v-448h-128z" />
    <glyph glyph-name="five" unicode="5" 
d="M0 0v64h192v128h-192v256h320v-64h-192v-128h128v-64h64v-128h-64v-64h-256z" />
    <glyph glyph-name="six" unicode="6" 
d="M192 64v128h-64v-128h64zM64 0v64h-64v320h64v64h192v-64h64v-64h-128v64h-64v-128h128v-64h64v-128h-64v-64h-192z" />
    <glyph glyph-name="seven" unicode="7" 
d="M0 0v128h64v64h64v64h64v128h-192v64h320v-192h-64v-64h-64v-64h-64v-128h-128z" />
    <glyph glyph-name="eight" unicode="8" 
d="M192 64v128h-64v-128h64zM192 256v128h-64v-128h64zM64 0v64h-64v128h64v64h-64v128h64v64h192v-64h64v-128h-64v-64h64v-128h-64v-64h-192z" />
    <glyph glyph-name="nine" unicode="9" 
d="M192 256v128h-64v-128h64zM64 0v64h-64v64h128v-64h64v128h-128v64h-64v128h64v64h192v-64h64v-320h-64v-64h-192z" />
    <glyph glyph-name="colon" unicode=":" horiz-adv-x="192" 
d="M0 64v128h128v-128h-128zM0 256v128h128v-128h-128z" />
    <glyph glyph-name="semicolon" unicode=";" horiz-adv-x="192" 
d="M64 0v64h-64v128h128v-192h-64zM0 256v128h128v-128h-128z" />
    <glyph glyph-name="less" unicode="&#x3c;" horiz-adv-x="320" 
d="M128 64v64h-64v64h-64v64h64v64h64v64h128v-64h-64v-64h-64v-64h64v-64h64v-64h-128z" />
    <glyph glyph-name="equal" unicode="=" horiz-adv-x="320" 
d="M0 128v64h256v-64h-256zM0 256v64h256v-64h-256z" />
    <glyph glyph-name="greater" unicode="&#x3e;" horiz-adv-x="320" 
d="M0 64v64h64v64h64v64h-64v64h-64v64h128v-64h64v-64h64v-64h-64v-64h-64v-64h-128z" />
    <glyph glyph-name="question" unicode="?" 
d="M64 0v64h128v-64h-128zM64 128v64h64v64h64v128h-64v-64h-128v64h64v64h192v-64h64v-128h-64v-64h-64v-64h-128z" />
    <glyph glyph-name="at" unicode="@" 
d="M64 0v64h-64v192h64v64h192v-64h64v-128h-128v128h-64v-192h128v-64h-192z" />
    <glyph glyph-name="A" unicode="A" 
d="M192 256v128h-64v-128h64zM0 0v384h64v64h192v-64h64v-384h-128v192h-64v-192h-128z" />
    <glyph glyph-name="B" unicode="B" 
d="M192 64v128h-64v-128h64zM192 256v128h-64v-128h64zM0 0v448h256v-64h64v-128h-64v-64h64v-128h-64v-64h-256z" />
    <glyph glyph-name="C" unicode="C" 
d="M64 0v64h-64v320h64v64h192v-64h64v-64h-128v64h-64v-320h64v64h128v-64h-64v-64h-192z" />
    <glyph glyph-name="D" unicode="D" 
d="M192 64v320h-64v-320h64zM0 0v448h256v-64h64v-320h-64v-64h-256z" />
    <glyph glyph-name="E" unicode="E" 
d="M0 0v448h320v-64h-192v-128h128v-64h-128v-128h192v-64h-320z" />
    <glyph glyph-name="F" unicode="F" 
d="M0 0v448h320v-64h-192v-128h128v-64h-128v-192h-128z" />
    <glyph glyph-name="G" unicode="G" 
d="M64 0v64h-64v320h64v64h192v-64h64v-64h-128v64h-64v-320h64v192h128v-192h-64v-64h-192z" />
    <glyph glyph-name="H" unicode="H" 
d="M0 0v448h128v-192h64v192h128v-448h-128v192h-64v-192h-128z" />
    <glyph glyph-name="I" unicode="I" horiz-adv-x="320" 
d="M0 0v64h64v320h-64v64h256v-64h-64v-320h64v-64h-256z" />
    <glyph glyph-name="J" unicode="J" 
d="M64 0v64h-64v64h128v-64h64v384h128v-384h-64v-64h-192z" />
    <glyph glyph-name="K" unicode="K" 
d="M0 0v448h128v-192h64v192h128v-192h-64v-64h64v-192h-128v192h-64v-192h-128z" />
    <glyph glyph-name="L" unicode="L" 
d="M0 0v448h128v-384h192v-64h-320z" />
    <glyph glyph-name="M" unicode="M" horiz-adv-x="512" 
d="M192 256v64h64v-64h-64zM0 0v448h128v-64h64v-64h-64v-320h-128zM320 0v320h-64v64h64v64h128v-448h-128z" />
    <glyph glyph-name="N" unicode="N" 
d="M0 0v448h64v-64h64v-64h64v128h128v-448h-128v256h-64v-256h-128z" />
    <glyph glyph-name="O" unicode="O" 
d="M192 64v320h-64v-320h64zM64 0v64h-64v320h64v64h192v-64h64v-320h-64v-64h-192z" />
    <glyph glyph-name="P" unicode="P" 
d="M192 256v128h-64v-128h64zM0 0v448h256v-64h64v-128h-64v-64h-128v-192h-128z" />
    <glyph glyph-name="Q" unicode="Q" 
d="M192 64v320h-64v-320h64zM64 0v64h-64v320h64v64h192v-64h64v-256h-64v-64h64v-64h-256z" />
    <glyph glyph-name="R" unicode="R" 
d="M192 256v128h-64v-128h64zM0 0v448h256v-64h64v-128h-64v-64h64v-192h-128v192h-64v-192h-128z" />
    <glyph glyph-name="S" unicode="S" 
d="M64 0v64h-64v64h128v-64h64v128h-128v64h-64v128h64v64h192v-64h64v-64h-128v64h-64v-128h128v-64h64v-128h-64v-64h-192z" />
    <glyph glyph-name="T" unicode="T" horiz-adv-x="320" 
d="M64 0v384h-64v64h256v-64h-64v-384h-128z" />
    <glyph glyph-name="U" unicode="U" 
d="M64 0v64h-64v384h128v-384h64v384h128v-384h-64v-64h-192z" />
    <glyph glyph-name="V" unicode="V" 
d="M128 0v64h-64v64h-64v320h128v-320h64v320h128v-320h-64v-64h-64v-64h-64z" />
    <glyph glyph-name="W" unicode="W" horiz-adv-x="512" 
d="M64 0v64h-64v384h128v-256h64v64h64v-64h64v256h128v-384h-64v-64h-64v64h-64v64h-64v-64h-64v-64h-64z" />
    <glyph glyph-name="X" unicode="X" 
d="M0 0v192h64v64h-64v192h128v-192h64v192h128v-192h-64v-64h64v-192h-128v192h-64v-192h-128z" />
    <glyph glyph-name="Y" unicode="Y" 
d="M64 0v64h-64v64h128v-64h64v128h-128v64h-64v192h128v-192h64v192h128v-384h-64v-64h-192z" />
    <glyph glyph-name="Z" unicode="Z" 
d="M0 0v192h64v64h64v64h64v64h-192v64h320v-128h-64v-64h-64v-64h-64v-128h192v-64h-320z" />
    <glyph glyph-name="bracketleft" unicode="[" horiz-adv-x="256" 
d="M0 0v448h192v-64h-64v-320h64v-64h-192z" />
    <glyph glyph-name="backslash" unicode="\" 
d="M192 0v192h-64v64h-64v64h-64v128h128v-128h64v-64h64v-64h64v-192h-128z" />
    <glyph glyph-name="bracketright" unicode="]" horiz-adv-x="256" 
d="M0 0v64h64v320h-64v64h192v-448h-192z" />
    <glyph glyph-name="asciicircum" unicode="^" 
d="M0 192v128h64v64h64v64h64v-64h64v-64h64v-128h-64v64h-64v64h-64v-64h-64v-64h-64z" />
    <glyph glyph-name="underscore" unicode="_" 
d="M-64 0v64h448v-64h-448z" />
    <glyph glyph-name="grave" unicode="`" horiz-adv-x="192" 
d="M64 256v64h-64v128h128v-192h-64z" />
    <glyph glyph-name="a" unicode="a" 
d="M192 64v64h-64v-64h64zM64 0v64h-64v64h64v64h128v64h-128v64h192v-64h64v-256h-256z" />
    <glyph glyph-name="b" unicode="b" 
d="M192 64v192h-64v-192h64zM0 0v448h128v-128h128v-64h64v-192h-64v-64h-256z" />
    <glyph glyph-name="c" unicode="c" 
d="M64 0v64h-64v192h64v64h192v-64h64v-64h-128v64h-64v-192h64v64h128v-64h-64v-64h-192z" />
    <glyph glyph-name="d" unicode="d" 
d="M192 64v192h-64v-192h64zM64 0v64h-64v192h64v64h128v128h128v-448h-256z" />
    <glyph glyph-name="e" unicode="e" 
d="M192 192v64h-64v-64h64zM64 0v64h-64v192h64v64h192v-64h64v-128h-192v-64h128v-64h-192z" />
    <glyph glyph-name="f" unicode="f" 
d="M64 0v256h-64v64h64v64h64v64h192v-64h-128v-64h64v-64h-64v-256h-128z" />
    <glyph glyph-name="g" unicode="g" 
d="M192 64v192h-64v-192h64zM64 -128v64h128v64h-128v64h-64v192h64v64h256v-384h-64v-64h-192z" />
    <glyph glyph-name="h" unicode="h" 
d="M0 0v448h128v-128h128v-64h64v-256h-128v256h-64v-256h-128z" />
    <glyph glyph-name="i" unicode="i" horiz-adv-x="192" 
d="M0 0v320h128v-320h-128zM0 384v64h128v-64h-128z" />
    <glyph glyph-name="j" unicode="j" horiz-adv-x="192" 
d="M0 -128v448h128v-384h-64v-64h-64zM0 384v64h128v-64h-128z" />
    <glyph glyph-name="k" unicode="k" 
d="M0 0v448h128v-256h64v128h128v-128h-64v-64h64v-128h-128v128h-64v-128h-128z" />
    <glyph glyph-name="l" unicode="l" horiz-adv-x="192" 
d="M0 0v448h128v-448h-128z" />
    <glyph glyph-name="m" unicode="m" horiz-adv-x="512" 
d="M0 0v320h384v-64h64v-256h-128v256h-64v-256h-64v256h-64v-256h-128z" />
    <glyph glyph-name="n" unicode="n" 
d="M0 0v320h256v-64h64v-256h-128v256h-64v-256h-128z" />
    <glyph glyph-name="o" unicode="o" 
d="M192 64v192h-64v-192h64zM64 0v64h-64v192h64v64h192v-64h64v-192h-64v-64h-192z" />
    <glyph glyph-name="p" unicode="p" 
d="M192 64v192h-64v-192h64zM0 -128v448h256v-64h64v-192h-64v-64h-128v-128h-128z" />
    <glyph glyph-name="q" unicode="q" 
d="M192 64v192h-64v-192h64zM192 -128v128h-128v64h-64v192h64v64h256v-448h-128z" />
    <glyph glyph-name="r" unicode="r" 
d="M0 0v320h256v-64h64v-64h-128v64h-64v-256h-128z" />
    <glyph glyph-name="s" unicode="s" 
d="M0 0v64h192v64h-192v128h64v64h256v-64h-192v-64h192v-128h-64v-64h-256z" />
    <glyph glyph-name="t" unicode="t" 
d="M64 0v64h-64v384h128v-128h128v-64h-128v-192h64v64h128v-64h-64v-64h-192z" />
    <glyph glyph-name="u" unicode="u" 
d="M64 0v64h-64v256h128v-256h64v256h128v-320h-256z" />
    <glyph glyph-name="v" unicode="v" 
d="M128 0v64h-64v64h-64v192h128v-192h64v192h128v-192h-64v-64h-64v-64h-64z" />
    <glyph glyph-name="w" unicode="w" horiz-adv-x="512" 
d="M64 0v64h-64v256h128v-192h64v64h64v-64h64v192h128v-256h-64v-64h-128v64h-64v-64h-128z" />
    <glyph glyph-name="x" unicode="x" 
d="M0 0v128h64v64h-64v128h128v-128h64v128h128v-128h-64v-64h64v-128h-128v128h-64v-128h-128z" />
    <glyph glyph-name="y" unicode="y" 
d="M64 -128v64h128v64h-128v64h-64v256h128v-256h64v256h128v-384h-64v-64h-192z" />
    <glyph glyph-name="z" unicode="z" 
d="M0 0v128h64v64h64v64h-128v64h320v-64h-64v-64h-64v-64h-64v-64h192v-64h-320z" />
    <glyph glyph-name="braceleft" unicode="{" horiz-adv-x="320" 
d="M128 0v64h-64v128h-64v64h64v128h64v64h128v-64h-64v-128h-64v-64h64v-128h64v-64h-128z" />
    <glyph glyph-name="bar" unicode="|" horiz-adv-x="192" 
d="M0 0v448h128v-448h-128z" />
    <glyph glyph-name="braceright" unicode="}" horiz-adv-x="320" 
d="M0 0v64h64v128h64v64h-64v128h-64v64h128v-64h64v-128h64v-64h-64v-128h-64v-64h-128z" />
    <glyph glyph-name="asciitilde" unicode="~" horiz-adv-x="576" 
d="M0 128v128h64v64h192v-64h64v-64h64v128h128v-128h-64v-64h-192v64h-64v64h-64v-128h-128z" />
    <glyph glyph-name="exclamdown" unicode="&#xa1;" horiz-adv-x="192" 
d="M0 0v320h128v-320h-128zM0 384v64h128v-64h-128z" />
    <glyph glyph-name="cent" unicode="&#xa2;" 
d="M128 -64v64h-64v64h-64v192h64v64h64v64h64v-64h64v-64h64v-64h-128v64h-64v-192h64v64h128v-64h-64v-64h-64v-64h-64z" />
    <glyph glyph-name="sterling" unicode="&#xa3;" 
d="M0 0v64h64v64h-64v64h64v64h-64v64h64v64h64v64h192v-64h-128v-64h64v-64h-64v-64h64v-64h-64v-64h128v-64h-320z" />
    <glyph glyph-name="currency" unicode="&#xa4;" 
d="M0 64v64h64v-64h-64zM256 64v64h64v-64h-64zM192 192v64h-64v-64h64zM64 128v192h192v-192h-192zM0 320v64h64v-64h-64zM256 320v64h64v-64h-64z" />
    <glyph glyph-name="yen" unicode="&#xa5;" 
d="M128 0v64h-64v64h64v64h-64v64h-64v192h128v-192h64v192h128v-192h-64v-64h-64v-64h64v-64h-64v-64h-64z" />
    <glyph glyph-name="brokenbar" unicode="&#xa6;" horiz-adv-x="192" 
d="M0 0v192h128v-192h-128zM0 256v192h128v-192h-128z" />
    <glyph glyph-name="section" unicode="&#xa7;" 
d="M192 192v64h-64v-64h64zM0 0v64h192v64h-128v64h-64v64h64v64h-64v64h64v64h256v-64h-192v-64h128v-64h64v-64h-64v-64h64v-64h-64v-64h-256z" />
    <glyph glyph-name="dieresis" unicode="&#xa8;" horiz-adv-x="256" 
d="M0 384v64h64v-64h-64zM128 384v64h64v-64h-64z" />
    <glyph glyph-name="copyright" unicode="&#xa9;" 
d="M64 0v64h192v-64h-192zM0 64v192h64v-192h-64zM256 64v64h-128v64h128v64h64v-192h-64zM64 256v64h192v-64h-192z" />
    <glyph glyph-name="guillemotleft" unicode="&#xab;" horiz-adv-x="512" 
d="M128 64v64h-64v64h-64v64h64v64h64v64h128v-64h-64v-64h-64v-64h64v-64h64v-64h-128zM320 64v64h-64v64h-64v64h64v64h64v64h128v-64h-64v-64h-64v-64h64v-64h64v-64h-128z" />
    <glyph glyph-name="logicalnot" unicode="&#xac;" 
d="M192 192v64h-192v64h320v-128h-128z" />
    <glyph glyph-name="uni00AD" unicode="&#xad;" horiz-adv-x="256" 
d="M0 192v64h192v-64h-192z" />
    <glyph glyph-name="registered" unicode="&#xae;" 
d="M0 64v192h64v-192h-64zM64 0v64h64v128h128v64h64v-192h-64v-64h-192zM64 256v64h192v-64h-192z" />
    <glyph glyph-name="macron" unicode="&#xaf;" 
d="M-64 320v128h448v-128h-448z" />
    <glyph glyph-name="degree" unicode="&#xb0;" horiz-adv-x="256" 
d="M64 256v64h64v-64h-64zM0 320v64h64v-64h-64zM128 320v64h64v-64h-64zM64 384v64h64v-64h-64z" />
    <glyph glyph-name="plusminus" unicode="&#xb1;" horiz-adv-x="320" 
d="M0 128v64h64v64h-64v64h64v64h128v-64h64v-64h-64v-64h64v-64h-256z" />
    <glyph glyph-name="uni00B2" unicode="&#xb2;" horiz-adv-x="256" 
d="M0 128v128h64v-64h128v-64h-192zM64 256v64h64v-64h-64zM128 320v64h64v-64h-64zM0 384v64h128v-64h-128z" />
    <glyph glyph-name="uni00B3" unicode="&#xb3;" horiz-adv-x="256" 
d="M0 128v64h128v-64h-128zM128 192v64h64v-64h-64zM64 256v64h64v-64h-64zM128 320v64h64v-64h-64zM0 384v64h128v-64h-128z" />
    <glyph glyph-name="acute" unicode="&#xb4;" horiz-adv-x="192" 
d="M0 256v128h64v64h64v-128h-64v-64h-64z" />
    <glyph glyph-name="uni00B5" unicode="&#xb5;" 
d="M0 -128v448h128v-192h64v192h128v-320h-128v64h-64v-192h-128z" />
    <glyph glyph-name="paragraph" unicode="&#xb6;" 
d="M64 0v192h-64v192h64v64h256v-448h-128v384h-64v-384h-64z" />
    <glyph glyph-name="periodcentered" unicode="&#xb7;" horiz-adv-x="192" 
d="M0 192v64h128v-64h-128z" />
    <glyph glyph-name="cedilla" unicode="&#xb8;" horiz-adv-x="256" 
d="M0 -128v64h64v64h128v-64h-64v-64h-128z" />
    <glyph glyph-name="uni00B9" unicode="&#xb9;" horiz-adv-x="256" 
d="M0 128v64h64v192h-64v64h128v-256h64v-64h-192z" />
    <glyph glyph-name="ordmasculine" unicode="&#xba;" horiz-adv-x="256" 
d="M64 256v64h64v-64h-64zM0 320v64h64v-64h-64zM128 320v64h64v-64h-64zM64 384v64h64v-64h-64z" />
    <glyph glyph-name="guillemotright" unicode="&#xbb;" horiz-adv-x="512" 
d="M0 64v64h64v64h64v64h-64v64h-64v64h128v-64h64v-64h64v-64h-64v-64h-64v-64h-128zM192 64v64h64v64h64v64h-64v64h-64v64h128v-64h64v-64h64v-64h-64v-64h-64v-64h-128z" />
    <glyph glyph-name="onequarter" unicode="&#xbc;" 
d="M192 128v64h-64v-64h64zM0 0v320h128v-64h64v64h128v-320h-128v64h-64v-64h-128z" />
    <glyph glyph-name="onehalf" unicode="&#xbd;" 
d="M192 64v192h-64v-192h64zM0 0v320h320v-320h-320z" />
    <glyph glyph-name="threequarters" unicode="&#xbe;" 
d="M0 0v192h128v-128h192v-64h-320zM192 128v128h-192v64h320v-192h-128z" />
    <glyph glyph-name="questiondown" unicode="&#xbf;" 
d="M64 0v64h-64v128h64v64h64v64h128v-64h-64v-64h-64v-128h64v64h128v-64h-64v-64h-192zM128 384v64h128v-64h-128z" />
    <glyph glyph-name="Agrave" unicode="&#xc0;" 
d="M192 256v128h-64v-128h64zM0 0v384h64v64h192v-64h64v-384h-128v192h-64v-192h-128zM64 512v64h128v-64h-128z" />
    <glyph glyph-name="Aacute" unicode="&#xc1;" 
d="M192 256v128h-64v-128h64zM0 0v384h64v64h192v-64h64v-384h-128v192h-64v-192h-128zM128 512v64h128v-64h-128z" />
    <glyph glyph-name="Acircumflex" unicode="&#xc2;" 
d="M192 256v128h-64v-128h64zM0 0v384h64v128h64v-64h64v64h64v-128h64v-384h-128v192h-64v-192h-128zM128 512v64h64v-64h-64z" />
    <glyph glyph-name="Atilde" unicode="&#xc3;" 
d="M192 256v128h-64v-128h64zM0 448v64h64v-64h-64zM0 0v384h64v64h64v64h-64v64h128v-64h64v-128h64v-384h-128v192h-64v-192h-128zM256 512v64h64v-64h-64z" />
    <glyph glyph-name="Adieresis" unicode="&#xc4;" 
d="M192 256v128h-64v-128h64zM0 0v384h64v64h192v-64h64v-384h-128v192h-64v-192h-128zM64 512v64h64v-64h-64zM192 512v64h64v-64h-64z" />
    <glyph glyph-name="Aring" unicode="&#xc5;" 
d="M192 256v128h-64v-128h64zM0 0v384h64v64h192v-64h64v-384h-128v192h-64v-192h-128zM128 512v64h64v-64h-64z" />
    <glyph glyph-name="AE" unicode="&#xc6;" horiz-adv-x="576" 
d="M192 256v128h-64v-128h64zM0 0v384h64v64h448v-64h-192v-128h128v-64h-128v-128h192v-64h-320v192h-64v-192h-128z" />
    <glyph glyph-name="Ccedilla" unicode="&#xc7;" 
d="M64 -128v64h64v64h-64v64h-64v320h64v64h192v-64h64v-64h-128v64h-64v-320h64v64h128v-64h-64v-128h-64v-64h-128z" />
    <glyph glyph-name="Egrave" unicode="&#xc8;" 
d="M0 0v448h320v-64h-192v-128h128v-64h-128v-128h192v-64h-320zM64 512v64h128v-64h-128z" />
    <glyph glyph-name="Eacute" unicode="&#xc9;" 
d="M0 0v448h320v-64h-192v-128h128v-64h-128v-128h192v-64h-320zM128 512v64h128v-64h-128z" />
    <glyph glyph-name="Ecircumflex" unicode="&#xca;" 
d="M0 0v448h64v64h64v-64h64v64h64v-64h64v-64h-192v-128h128v-64h-128v-128h192v-64h-320zM128 512v64h64v-64h-64z" />
    <glyph glyph-name="Edieresis" unicode="&#xcb;" 
d="M0 0v448h320v-64h-192v-128h128v-64h-128v-128h192v-64h-320zM64 512v64h64v-64h-64zM192 512v64h64v-64h-64z" />
    <glyph glyph-name="Igrave" unicode="&#xcc;" horiz-adv-x="320" 
d="M0 0v64h64v320h-64v64h256v-64h-64v-320h64v-64h-256zM0 512v64h128v-64h-128z" />
    <glyph glyph-name="Iacute" unicode="&#xcd;" horiz-adv-x="320" 
d="M0 0v64h64v320h-64v64h256v-64h-64v-320h64v-64h-256zM128 512v64h64v-64h-64z" />
    <glyph glyph-name="Icircumflex" unicode="&#xce;" horiz-adv-x="320" 
d="M0 0v64h64v320h-64v128h64v-64h128v64h64v-128h-64v-320h64v-64h-256zM64 512v64h128v-64h-128z" />
    <glyph glyph-name="Idieresis" unicode="&#xcf;" horiz-adv-x="320" 
d="M0 0v64h64v320h-64v64h256v-64h-64v-320h64v-64h-256zM0 512v64h64v-64h-64zM192 512v64h64v-64h-64z" />
    <glyph glyph-name="Eth" unicode="&#xd0;" 
d="M192 64v128h-64v-128h64zM192 256v128h-64v-128h64zM0 0v448h256v-64h64v-320h-64v-64h-256z" />
    <glyph glyph-name="Ntilde" unicode="&#xd1;" 
d="M0 0v512h64v-128h64v-64h64v192h64v-64h64v-448h-128v256h-64v-256h-128zM64 512v64h128v-64h-128zM256 512v64h64v-64h-64z" />
    <glyph glyph-name="Ograve" unicode="&#xd2;" 
d="M192 64v320h-64v-320h64zM64 0v64h-64v320h64v64h192v-64h64v-320h-64v-64h-192zM0 512v64h128v-64h-128z" />
    <glyph glyph-name="Oacute" unicode="&#xd3;" 
d="M192 64v320h-64v-320h64zM64 0v64h-64v320h64v64h192v-64h64v-320h-64v-64h-192zM128 512v64h128v-64h-128z" />
    <glyph glyph-name="Ocircumflex" unicode="&#xd4;" 
d="M192 64v320h-64v-320h64zM64 0v64h-64v320h64v128h64v-64h64v64h64v-128h64v-320h-64v-64h-192zM128 512v64h64v-64h-64z" />
    <glyph glyph-name="Otilde" unicode="&#xd5;" 
d="M192 64v320h-64v-320h64zM0 448v64h64v-64h-64zM64 0v64h-64v320h64v64h128v64h64v-128h64v-320h-64v-64h-192zM64 512v64h128v-64h-128zM256 512v64h64v-64h-64z" />
    <glyph glyph-name="Odieresis" unicode="&#xd6;" 
d="M192 64v320h-64v-320h64zM64 0v64h-64v320h64v64h192v-64h64v-320h-64v-64h-192zM64 512v64h64v-64h-64zM192 512v64h64v-64h-64z" />
    <glyph glyph-name="multiply" unicode="&#xd7;" 
d="M0 64v64h64v64h64v64h-64v64h-64v64h128v-64h64v64h128v-64h-64v-64h-64v-64h64v-64h64v-64h-128v64h-64v-64h-128z" />
    <glyph glyph-name="Oslash" unicode="&#xd8;" 
d="M192 64v128h-64v-128h64zM192 320v64h-64v-64h64zM64 0v64h-64v320h64v64h192v-64h64v-320h-64v-64h-192z" />
    <glyph glyph-name="Ugrave" unicode="&#xd9;" 
d="M64 0v64h-64v384h128v-384h64v384h128v-384h-64v-64h-192zM64 512v64h128v-64h-128z" />
    <glyph glyph-name="Uacute" unicode="&#xda;" 
d="M64 0v64h-64v384h128v-384h64v384h128v-384h-64v-64h-192zM128 512v64h128v-64h-128z" />
    <glyph glyph-name="Ucircumflex" unicode="&#xdb;" 
d="M64 0v64h-64v384h64v64h64v-448h64v448h64v-64h64v-384h-64v-64h-192zM128 512v64h64v-64h-64z" />
    <glyph glyph-name="Udieresis" unicode="&#xdc;" 
d="M64 0v64h-64v384h128v-384h64v384h128v-384h-64v-64h-192zM64 512v64h64v-64h-64zM192 512v64h64v-64h-64z" />
    <glyph glyph-name="Yacute" unicode="&#xdd;" 
d="M64 0v64h-64v64h128v-64h64v128h-128v64h-64v192h128v-192h64v192h128v-384h-64v-64h-192zM128 512v64h128v-64h-128z" />
    <glyph glyph-name="Thorn" unicode="&#xde;" 
d="M192 128v192h-64v-192h64zM0 0v448h128v-64h128v-64h64v-192h-64v-64h-128v-64h-128z" />
    <glyph glyph-name="germandbls" unicode="&#xdf;" 
d="M192 64v320h-64v-320h64zM0 0v384h64v64h192v-64h64v-128h-64v-64h64v-128h-64v-64h-256z" />
    <glyph glyph-name="agrave" unicode="&#xe0;" 
d="M192 64v64h-64v-64h64zM64 0v64h-64v64h64v64h128v64h-128v64h192v-64h64v-256h-256zM64 384v64h128v-64h-128z" />
    <glyph glyph-name="aacute" unicode="&#xe1;" 
d="M192 64v64h-64v-64h64zM64 0v64h-64v64h64v64h128v64h-128v64h192v-64h64v-256h-256zM128 384v64h128v-64h-128z" />
    <glyph glyph-name="acircumflex" unicode="&#xe2;" 
d="M192 64v64h-64v-64h64zM64 0v64h-64v64h64v64h128v64h-128v128h64v-64h64v64h64v-128h64v-256h-256zM128 384v64h64v-64h-64z" />
    <glyph glyph-name="atilde" unicode="&#xe3;" 
d="M192 64v64h-64v-64h64zM0 320v64h64v-64h-64zM64 0v64h-64v64h64v64h128v64h-128v64h128v64h64v-128h64v-256h-256zM64 384v64h128v-64h-128zM256 384v64h64v-64h-64z" />
    <glyph glyph-name="adieresis" unicode="&#xe4;" 
d="M192 64v64h-64v-64h64zM64 0v64h-64v64h64v64h128v64h-128v64h192v-64h64v-256h-256zM64 384v64h64v-64h-64zM192 384v64h64v-64h-64z" />
    <glyph glyph-name="aring" unicode="&#xe5;" 
d="M192 64v64h-64v-64h64zM64 0v64h-64v64h64v64h128v64h-128v64h192v-64h64v-256h-256zM128 384v64h64v-64h-64z" />
    <glyph glyph-name="ae" unicode="&#xe6;" horiz-adv-x="576" 
d="M192 64v64h-64v-64h64zM384 192v64h-64v-64h64zM64 0v64h-64v64h64v64h128v64h-128v64h384v-64h64v-128h-192v-64h128v-64h-384z" />
    <glyph glyph-name="ccedilla" unicode="&#xe7;" 
d="M64 -128v64h64v64h-64v64h-64v192h64v64h192v-64h64v-64h-128v64h-64v-192h64v64h128v-64h-64v-128h-64v-64h-128z" />
    <glyph glyph-name="egrave" unicode="&#xe8;" 
d="M192 192v64h-64v-64h64zM64 0v64h-64v192h64v64h192v-64h64v-128h-192v-64h128v-64h-192zM64 384v64h128v-64h-128z" />
    <glyph glyph-name="eacute" unicode="&#xe9;" 
d="M192 192v64h-64v-64h64zM64 0v64h-64v192h64v64h192v-64h64v-128h-192v-64h128v-64h-192zM128 384v64h128v-64h-128z" />
    <glyph glyph-name="ecircumflex" unicode="&#xea;" 
d="M192 192v64h-64v-64h64zM64 0v64h-64v192h64v128h64v-64h64v64h64v-128h64v-128h-192v-64h128v-64h-192zM128 384v64h64v-64h-64z" />
    <glyph glyph-name="edieresis" unicode="&#xeb;" 
d="M192 192v64h-64v-64h64zM64 0v64h-64v192h64v64h192v-64h64v-128h-192v-64h128v-64h-192zM64 384v64h64v-64h-64zM192 384v64h64v-64h-64z" />
    <glyph glyph-name="igrave" unicode="&#xec;" horiz-adv-x="192" 
d="M0 0v320h128v-320h-128zM0 384v64h64v-64h-64z" />
    <glyph glyph-name="iacute" unicode="&#xed;" horiz-adv-x="192" 
d="M0 0v320h128v-320h-128zM0 384v64h128v-64h-128z" />
    <glyph glyph-name="icircumflex" unicode="&#xee;" horiz-adv-x="192" 
d="M0 0v384h64v-64h64v-320h-128zM128 320v64h64v-64h-64zM64 384v64h64v-64h-64z" />
    <glyph glyph-name="idieresis" unicode="&#xef;" horiz-adv-x="256" 
d="M0 0v320h128v-320h-128zM0 384v64h64v-64h-64zM128 384v64h64v-64h-64z" />
    <glyph glyph-name="eth" unicode="&#xf0;" 
d="M192 64v128h-64v-128h64zM64 0v64h-64v128h64v64h128v64h-64v64h64v64h128v-448h-256z" />
    <glyph glyph-name="ntilde" unicode="&#xf1;" 
d="M0 0v384h64v-64h128v64h64v-128h64v-256h-128v256h-64v-256h-128zM64 384v64h128v-64h-128zM256 384v64h64v-64h-64z" />
    <glyph glyph-name="ograve" unicode="&#xf2;" 
d="M192 64v192h-64v-192h64zM64 0v64h-64v192h64v64h192v-64h64v-192h-64v-64h-192zM64 384v64h128v-64h-128z" />
    <glyph glyph-name="oacute" unicode="&#xf3;" 
d="M192 64v192h-64v-192h64zM64 0v64h-64v192h64v64h192v-64h64v-192h-64v-64h-192zM128 384v64h128v-64h-128z" />
    <glyph glyph-name="ocircumflex" unicode="&#xf4;" 
d="M192 64v192h-64v-192h64zM64 0v64h-64v192h64v128h64v-64h64v64h64v-128h64v-192h-64v-64h-192zM128 384v64h64v-64h-64z" />
    <glyph glyph-name="otilde" unicode="&#xf5;" 
d="M192 64v192h-64v-192h64zM0 320v64h64v-64h-64zM64 0v64h-64v192h64v64h128v64h64v-128h64v-192h-64v-64h-192zM64 384v64h128v-64h-128zM256 384v64h64v-64h-64z" />
    <glyph glyph-name="odieresis" unicode="&#xf6;" 
d="M192 64v192h-64v-192h64zM64 0v64h-64v192h64v64h192v-64h64v-192h-64v-64h-192zM64 384v64h64v-64h-64zM192 384v64h64v-64h-64z" />
    <glyph glyph-name="divide" unicode="&#xf7;" 
d="M128 64v64h64v-64h-64zM0 192v64h320v-64h-320zM128 320v64h64v-64h-64z" />
    <glyph glyph-name="oslash" unicode="&#xf8;" 
d="M192 64v64h-64v-64h64zM192 192v64h-64v-64h64zM64 0v64h-64v192h64v64h192v-64h64v-192h-64v-64h-192z" />
    <glyph glyph-name="ugrave" unicode="&#xf9;" 
d="M64 0v64h-64v256h128v-256h64v256h128v-320h-256zM64 384v64h128v-64h-128z" />
    <glyph glyph-name="uacute" unicode="&#xfa;" 
d="M64 0v64h-64v256h128v-256h64v256h128v-320h-256zM128 384v64h128v-64h-128z" />
    <glyph glyph-name="ucircumflex" unicode="&#xfb;" 
d="M64 0v64h-64v256h64v64h64v-320h64v320h64v-64h64v-320h-256zM128 384v64h64v-64h-64z" />
    <glyph glyph-name="udieresis" unicode="&#xfc;" 
d="M64 0v64h-64v256h128v-256h64v256h128v-320h-256zM64 384v64h64v-64h-64zM192 384v64h64v-64h-64z" />
    <glyph glyph-name="yacute" unicode="&#xfd;" 
d="M64 -128v64h128v64h-128v64h-64v256h128v-256h64v256h128v-384h-64v-64h-192zM128 384v64h128v-64h-128z" />
    <glyph glyph-name="thorn" unicode="&#xfe;" 
d="M192 128v64h-64v-64h64zM0 0v320h128v-64h128v-64h64v-64h-64v-64h-128v-64h-128z" />
    <glyph glyph-name="ydieresis" unicode="&#xff;" 
d="M64 -128v64h128v64h-128v64h-64v256h128v-256h64v256h128v-384h-64v-64h-192zM64 384v64h64v-64h-64zM192 384v64h64v-64h-64z" />
    <glyph glyph-name="OE" unicode="&#x152;" horiz-adv-x="576" 
d="M192 64v320h-64v-320h64zM64 0v64h-64v320h64v64h448v-64h-192v-128h128v-64h-128v-128h192v-64h-448z" />
    <glyph glyph-name="oe" unicode="&#x153;" horiz-adv-x="576" 
d="M192 64v192h-64v-192h64zM384 192v64h-64v-64h64zM64 0v64h-64v192h64v64h384v-64h64v-128h-192v-64h128v-64h-384z" />
    <glyph glyph-name="Uring" unicode="&#x16e;" 
d="M64 0v64h-64v384h128v-384h64v384h128v-384h-64v-64h-192zM128 512v64h64v-64h-64z" />
    <glyph glyph-name="uring" unicode="&#x16f;" 
d="M64 0v64h-64v256h128v-256h64v256h128v-320h-256zM128 384v64h64v-64h-64z" />
    <glyph glyph-name="Ydieresis" unicode="&#x178;" 
d="M64 0v64h-64v64h128v-64h64v128h-128v64h-64v192h128v-192h64v192h128v-384h-64v-64h-192zM64 512v64h64v-64h-64zM192 512v64h64v-64h-64z" />
    <glyph glyph-name="uni1E9E" unicode="&#x1e9e;" 
d="M192 64v320h-64v-320h64zM0 0v384h64v64h192v-64h64v-128h-64v-64h64v-128h-64v-64h-256z" />
    <glyph glyph-name="emdash" unicode="&#x2014;" horiz-adv-x="448" 
d="M0 192v64h384v-64h-384z" />
    <glyph glyph-name="quoteleft" unicode="&#x2018;" horiz-adv-x="192" 
d="M0 320v128h128v-128h-128z" />
    <glyph glyph-name="quoteright" unicode="&#x2019;" horiz-adv-x="192" 
d="M0 320v128h128v-128h-128z" />
    <glyph glyph-name="quotesinglbase" unicode="&#x201a;" horiz-adv-x="192" 
d="M64 -64v64h-64v128h128v-192h-64z" />
    <glyph glyph-name="quotereversed" unicode="&#x201b;" horiz-adv-x="192" 
d="M0 256v192h128v-128h-64v-64h-64z" />
    <glyph glyph-name="quotedblleft" unicode="&#x201c;" 
d="M0 320v128h128v-128h-128zM192 320v128h128v-128h-128z" />
    <glyph glyph-name="quotedblright" unicode="&#x201d;" 
d="M0 320v128h128v-128h-128zM192 320v128h128v-128h-128z" />
    <glyph glyph-name="quotedblbase" unicode="&#x201e;" 
d="M64 -64v64h-64v128h128v-192h-64zM256 -64v64h-64v128h128v-192h-64z" />
    <glyph glyph-name="dagger" unicode="&#x2020;" horiz-adv-x="448" 
d="M128 0v256h-128v64h128v128h128v-128h128v-64h-128v-256h-128z" />
    <glyph glyph-name="bullet" unicode="&#x2022;" horiz-adv-x="256" 
d="M64 128v64h-64v64h64v64h64v-64h64v-64h-64v-64h-64z" />
    <glyph glyph-name="ellipsis" unicode="&#x2026;" horiz-adv-x="576" 
d="M0 0v128h128v-128h-128zM192 0v128h128v-128h-128zM384 0v128h128v-128h-128z" />
    <glyph glyph-name="guilsinglleft" unicode="&#x2039;" horiz-adv-x="320" 
d="M128 64v64h-64v64h-64v64h64v64h64v64h128v-64h-64v-64h-64v-64h64v-64h64v-64h-128z" />
    <glyph glyph-name="guilsinglright" unicode="&#x203a;" horiz-adv-x="320" 
d="M0 64v64h64v64h64v64h-64v64h-64v64h128v-64h64v-64h64v-64h-64v-64h-64v-64h-128z" />
    <glyph glyph-name="Euro" unicode="&#x20ac;" 
d="M128 0v64h-64v64h-64v64h64v64h-64v64h64v64h64v64h192v-64h-128v-64h64v-64h-64v-64h64v-64h-64v-64h128v-64h-192z" />
    <glyph glyph-name="trademark" unicode="&#x2122;" horiz-adv-x="640" 
d="M384 256v64h64v-64h-64zM64 256v128h-64v64h192v-64h-64v-128h-64zM256 256v192h64v-64h64v-64h-64v-64h-64zM512 256v64h-64v64h64v64h64v-192h-64z" />
    <glyph glyph-name="uniFB01" unicode="&#xfb01;" horiz-adv-x="448" 
d="M64 0v192h-64v64h64v128h64v64h192v-64h-128v-128h64v64h128v-320h-128v192h-64v-192h-128z" />
    <glyph glyph-name="uniFB02" unicode="&#xfb02;" horiz-adv-x="448" 
d="M256 256v128h-64v-128h64zM64 0v192h-64v64h64v128h64v64h192v-64h64v-384h-128v192h-64v-192h-128z" />
  </font>
</defs>
</svg>
